<svg width="64" height="64" viewBox="0 0 64 64" fill="none" xmlns="http://www.w3.org/2000/svg">
<path d="M40 8H16C13.7909 8 12 9.79086 12 12V52C12 54.2091 13.7909 56 16 56H48C50.2091 56 52 54.2091 52 52V20L40 8Z" fill="#4285F4"/>
<path d="M40 8V20H52L40 8Z" fill="#BBDEFB"/>
<path d="m36.91 38.09 1.41-3.09 1.42-3.09a.55.55 0 0 1 .94 0l1.42 3.09 1.41 3.09a.55.55 0 0 1-.48.81H37.4a.55.55 0 0 1-.49-.81Z" fill="#FFC107"/>
<path d="m26.91 46.09 1.41-3.09 1.42-3.09a.55.55 0 0 1 .94 0l1.42 3.09 1.41 3.09a.55.55 0 0 1-.48.81H27.4a.55.55 0 0 1-.49-.81Z" fill="#FFC107"/>
<path d="m28.91 34.09 1.41-3.09 1.42-3.09a.55.55 0 0 1 .94 0l1.42 3.09 1.41 3.09a.55.55 0 0 1-.48.81H29.4a.55.55 0 0 1-.49-.81Z" fill="#FFC107"/>
</svg>
